<svg role="graphics-symbol" aria-label="Southern Research" class="w-36" aria-hidden="true" focusable="false" viewBox="0 0 137 45" fill="none" xmlns="http://www.w3.org/2000/svg">
<path d="M27.7163 38.8002C27.2411 38.5638 26.6194 38.2447 26.0047 37.9232C25.7825 37.8073 25.5059 37.8972 25.3995 38.1241C24.3097 40.4291 23.0686 41.6773 22 41.6773C20.9362 41.6773 19.6974 40.4362 18.6099 38.1454C18.5035 37.9208 18.234 37.8286 18.0118 37.9397C17.5414 38.1738 16.9125 38.4764 16.2813 38.7742C16.0591 38.8783 15.9645 39.143 16.0709 39.3652C17.6572 42.6915 19.7234 44.5 22 44.5C24.2719 44.5 26.3357 42.701 27.9196 39.3865C28.0236 39.1714 27.9338 38.909 27.7163 38.8002Z" fill="currentColor"></path>
<path d="M44 22.5C44 19.9586 41.747 17.6773 37.643 16.0366C37.6336 16.0319 37.6288 16.0201 37.6312 16.0106C39.3735 11.9468 39.3522 8.74114 37.5556 6.94445C35.7589 5.14776 32.5532 5.12648 28.4894 6.86879C28.4799 6.87352 28.4681 6.8688 28.4634 6.85698C26.8227 2.75059 24.5414 0.5 22 0.5C19.4586 0.5 17.1773 2.75296 15.5366 6.85698C15.5319 6.86643 15.5201 6.87116 15.5106 6.86879C11.4468 5.12648 8.24113 5.14776 6.44445 6.94445C4.89835 8.49055 4.73759 11.0934 5.9669 14.6797L5.99291 14.753V14.7553L6.55319 15.935C6.55792 15.9444 6.55319 15.9586 6.54137 15.961C2.31915 17.6087 0 19.9208 0 22.5C0 25.0414 2.25295 27.3227 6.35697 28.9634C6.36643 28.9681 6.37116 28.9799 6.36879 28.9894C4.62648 33.0532 4.64775 36.2589 6.44445 38.0556C7.35461 38.9657 8.62884 39.422 10.1915 39.422C11.6761 39.422 13.4208 39.0106 15.3664 38.1903C16.4894 37.6631 17.6667 37.0957 18.0686 36.8806C18.0662 36.8759 18.0638 36.8712 18.0638 36.8664C19.3499 36.1501 20.6667 35.3038 21.9905 34.344C21.9976 34.3392 22.0071 34.3392 22.0142 34.344C23.2719 35.2565 24.5248 36.065 25.7494 36.7577L25.7518 36.7506C26.7849 37.2943 27.9196 37.8783 28.4634 38.143C28.4657 38.1359 28.4681 38.1288 28.4728 38.1217C30.4846 38.987 32.2861 39.4196 33.8109 39.4196C35.3735 39.4196 36.6478 38.9657 37.5579 38.0532C39.3546 36.2565 39.3759 33.0508 37.6336 28.987C37.6288 28.9775 37.6336 28.9657 37.6454 28.961C41.7494 27.3251 44 25.0437 44 22.5ZM26.8203 10.8759C27.7187 10.3605 28.8558 9.82388 29.383 9.58275C29.3806 9.57565 29.3783 9.56619 29.3759 9.5591C31.1631 8.7695 32.6809 8.38889 33.8061 8.38889C34.5981 8.38889 35.1962 8.57565 35.5603 8.94209C36.4421 9.82388 36.2884 12.0745 34.9504 15.1123C34.9456 15.1217 34.9362 15.1265 34.9267 15.1241C33.5154 14.7222 31.9929 14.3936 30.383 14.1359C30.3735 14.1336 30.3688 14.1288 30.3664 14.1194C30.1939 13.0437 29.9905 12.0059 29.7518 11.013C29.6856 10.7388 29.383 10.5946 29.13 10.7175C28.5934 10.9752 27.9125 11.3132 27.3357 11.6418C27.1655 11.7388 27.0804 11.935 27.1229 12.1241C27.2388 12.6418 27.3475 13.1785 27.4492 13.7364C27.4515 13.7482 27.4397 13.76 27.4279 13.76C26.8534 13.7033 26.2742 13.656 25.6879 13.6182C25.6832 13.6182 25.6785 13.6158 25.6761 13.6135C25.234 13.2258 24.7896 12.8475 24.3452 12.4835C24.3357 12.474 24.3357 12.4598 24.3475 12.4527C25.2009 11.8593 26.026 11.3369 26.8203 10.8759C26.8203 10.8735 26.8203 10.8712 26.8203 10.8759ZM18.0686 8.11466C19.2695 5.0201 20.7541 3.32033 22 3.32033C23.2459 3.32033 24.7305 5.0201 25.9314 8.11466C25.9362 8.12412 25.9314 8.13357 25.922 8.1383C24.6407 8.85225 23.3286 9.69622 22.0118 10.6513C22.0047 10.656 21.9953 10.656 21.9882 10.6513C20.669 9.69622 19.357 8.85225 18.078 8.1383C18.0686 8.13593 18.0662 8.12412 18.0686 8.11466ZM8.43972 8.93972C9.35225 8.02719 11.7069 8.26832 14.6241 9.5591C14.6217 9.56856 14.6194 9.58038 14.6147 9.58984C15.9929 10.0721 17.7754 11.221 17.8605 11.2754L17.8582 11.2801C18.4492 11.6418 19.0473 12.0319 19.6478 12.4504C19.6596 12.4574 19.6596 12.474 19.6501 12.4811C19.208 12.8452 18.766 13.221 18.3239 13.6064C18.3215 13.6087 18.3168 13.6111 18.3121 13.6111C17.7258 13.6489 17.1442 13.6962 16.5721 13.753C16.5579 13.7553 16.5485 13.7435 16.5508 13.7293C16.6525 13.1667 16.7612 12.6229 16.8794 12.1005C16.922 11.9137 16.8392 11.7199 16.6738 11.6206C16.1844 11.3322 15.5012 10.9515 14.8629 10.6702C14.6099 10.5591 14.3191 10.7057 14.253 10.9728C14.0118 11.9752 13.8038 13.0225 13.6312 14.1123C13.6288 14.1218 13.6241 14.1265 13.6147 14.1288C12.0851 14.3723 10.6312 14.6844 9.27896 15.0579C9.2695 15.0603 9.26005 15.0556 9.25532 15.0485L8.61229 13.6891V13.6868C7.83215 11.3842 7.76596 9.61111 8.43972 8.93972ZM7.61466 26.4314C4.52009 25.2305 2.82033 23.7459 2.82033 22.5C2.82033 21.2329 4.57683 19.7222 7.77069 18.5095L7.78487 18.5402C8.7305 18.1288 9.89598 17.8073 10.4894 17.656L10.487 17.6489C11.3381 17.4267 12.253 17.2234 13.2317 17.0485C13.2435 17.0461 13.2553 17.0579 13.2553 17.0697C13.1986 17.6442 13.1513 18.2234 13.1135 18.8097C13.1135 18.8144 13.1111 18.8191 13.1087 18.8215C12.7376 19.2423 12.3783 19.6655 12.0284 20.091C12.0189 20.1005 12.0047 20.1005 11.9976 20.0887C11.6974 19.6466 11.4043 19.2021 11.1253 18.7553C11.0236 18.5922 10.8274 18.5142 10.6407 18.5638C10.1702 18.6844 9.39716 18.8995 8.68322 19.1643C8.42317 19.2612 8.31678 19.5733 8.46099 19.8121C8.99764 20.6915 9.57683 21.5686 10.1915 22.4362C10.1962 22.4433 10.1962 22.4527 10.1915 22.4598C9.21986 23.7955 8.36407 25.1241 7.64066 26.422C7.63593 26.4314 7.62411 26.4362 7.61466 26.4314ZM13.2553 27.9303C13.2577 27.9444 13.2459 27.9539 13.2317 27.9515C12.2199 27.7695 11.2719 27.5591 10.3924 27.3251C10.3806 27.3227 10.3735 27.3061 10.3806 27.2967C10.8416 26.5024 11.3688 25.6749 11.9645 24.8215C11.9716 24.8097 11.9882 24.8097 11.9953 24.8191C12.357 25.2683 12.7281 25.7104 13.1064 26.1501C13.1087 26.1525 13.1111 26.1572 13.1111 26.1619C13.1489 26.7577 13.1986 27.3463 13.2553 27.9303ZM19.6548 32.5567C18.8085 33.1454 17.9905 33.6631 17.2057 34.1194C17.1939 34.1265 17.1797 34.1194 17.1773 34.1076C17.0426 33.5969 16.9125 33.0603 16.7943 32.5024C16.7541 32.3132 16.5957 32.1714 16.4043 32.1525C15.9362 32.1076 15.1844 32.0106 14.4043 31.9043C14.104 31.8641 13.8511 32.1312 13.9102 32.4291C14.1158 33.474 14.3522 34.4764 14.6218 35.4267C14.6241 35.4362 14.6194 35.4456 14.6099 35.4504C12.8298 36.2352 11.3191 36.6135 10.1962 36.6135C9.40425 36.6135 8.80615 36.4267 8.44208 36.0603C7.56028 35.1785 7.71395 32.9279 9.05201 29.8901C9.05674 29.8806 9.06619 29.8759 9.07565 29.8783C10.4823 30.2778 12.0024 30.6064 13.6028 30.8641C14.7754 31.0295 16.0236 31.1974 16.5485 31.247C16.5485 31.2447 16.5485 31.2447 16.5485 31.2423C16.6217 31.2494 16.6974 31.2565 16.773 31.2612C16.7778 31.2612 16.7801 31.2612 16.7849 31.2612C16.7825 31.2612 16.7801 31.2612 16.7778 31.2612C17.2861 31.3085 17.7991 31.3511 18.3168 31.3842C18.3215 31.3842 18.3262 31.3865 18.3286 31.3889C18.7707 31.7766 19.2151 32.1548 19.6596 32.5189C19.6667 32.5331 19.6643 32.5473 19.6548 32.5567ZM18.9527 28.4149C18.7258 28.4149 18.5177 28.2943 18.4043 28.0981L15.3546 22.8168C15.2411 22.6206 15.2411 22.3794 15.3546 22.1832L18.4043 16.9019C18.5177 16.7057 18.7281 16.5851 18.9527 16.5851H25.0496C25.2766 16.5851 25.4846 16.7057 25.5981 16.9019L28.6478 22.1832C28.7612 22.3794 28.7612 22.6206 28.6478 22.8168L25.5981 28.0981C25.4846 28.2943 25.2742 28.4149 25.0496 28.4149H18.9527ZM35.5626 36.0626C34.6809 36.9444 32.4303 36.7908 29.3924 35.4527C29.383 35.448 29.3783 35.4385 29.3806 35.4291C29.6501 34.4811 29.8865 33.4811 30.0922 32.4385C30.1513 32.1407 29.9007 31.8735 29.5981 31.9137C28.948 31.9988 28.1608 32.0863 27.5957 32.1454C27.4043 32.1643 27.2482 32.3062 27.208 32.4929C27.0875 33.0556 26.9598 33.5946 26.8227 34.1076C26.8203 34.1194 26.8038 34.1265 26.7943 34.1194C26.0095 33.6631 25.1891 33.143 24.3452 32.5544C24.3333 32.5473 24.3333 32.5307 24.3428 32.5236C24.7872 32.1572 25.2317 31.7813 25.6738 31.3936C25.6761 31.3913 25.6809 31.3889 25.6856 31.3889C26.1868 31.3558 26.6832 31.3156 27.1773 31.2707V31.266C28.5887 31.1218 30.182 30.9303 30.4113 30.857L30.4137 30.8641C32.0118 30.6087 33.5248 30.2801 34.9267 29.8806C34.9362 29.8782 34.9456 29.883 34.9504 29.8924C36.2908 32.9303 36.4421 35.1808 35.5626 36.0626ZM30.747 27.9303C30.8038 27.3558 30.8511 26.7766 30.8889 26.1903C30.8889 26.1856 30.8913 26.1808 30.8936 26.1785C31.2813 25.7364 31.6596 25.292 32.0236 24.8475C32.0331 24.8381 32.0473 24.8381 32.0544 24.8499C32.6407 25.6939 33.1631 26.5142 33.6194 27.2991C33.6265 27.3109 33.6194 27.3251 33.6076 27.3274C32.7305 27.5615 31.7825 27.7719 30.7683 27.9539C30.7565 27.9539 30.7447 27.9421 30.747 27.9303ZM36.3853 26.4314C36.3759 26.4362 36.3664 26.4314 36.3617 26.422C35.6478 25.1407 34.8038 23.8286 33.8487 22.5118C33.844 22.5047 33.844 22.4953 33.8487 22.4882C34.4917 21.5993 35.0851 20.7151 35.6217 19.8404C35.7683 19.5993 35.6572 19.2872 35.3924 19.1903C34.7636 18.9657 34.0071 18.7246 33.3877 18.6206C33.2128 18.5898 33.0355 18.6702 32.9409 18.8215C32.6643 19.2565 32.3712 19.7009 32.0567 20.1525C32.0496 20.1643 32.0331 20.1643 32.026 20.1548C31.6596 19.7104 31.2837 19.266 30.896 18.8239C30.8936 18.8215 30.8913 18.8168 30.8913 18.8121C30.8534 18.2258 30.8062 17.6442 30.7494 17.0721C30.747 17.0579 30.7589 17.0485 30.7731 17.0508C31.7849 17.2329 32.7329 17.4433 33.6099 17.6773C33.6217 17.6797 33.6288 17.6962 33.6217 17.7057C33.6147 17.7175 33.6217 17.7317 33.6359 17.734C34.5626 17.9066 35.6738 18.3038 36.3664 18.5733C36.3688 18.5686 36.3712 18.5662 36.3735 18.5615C39.4775 19.7648 41.1844 21.2518 41.1844 22.5C41.1797 23.7459 39.4799 25.2305 36.3853 26.4314Z" fill="currentColor"></path>
<path d="M22 25.8853C23.8697 25.8853 25.3853 24.3697 25.3853 22.5C25.3853 20.6303 23.8697 19.1147 22 19.1147C20.1303 19.1147 18.6147 20.6303 18.6147 22.5C18.6147 24.3697 20.1303 25.8853 22 25.8853Z" fill="currentColor"></path>
<path d="M49.5556 19.6733V16.0421H49.6951C51.1986 17.4653 53.3452 19.853 55.3901 19.853C56.4327 19.853 57.435 19.2312 57.435 17.9688C57.435 16.3045 55.6903 15.5811 53.5438 14.7608C51.2979 13.9192 49.2719 12.775 49.2719 10.4487C49.2719 8.18159 51.1963 5.97591 54.9268 5.97591C56.7707 5.97591 58.7565 6.57875 59.9811 7.03974V10.6095H59.8818C58.5178 9.38726 56.3712 6.94044 54.4067 6.94044C53.1443 6.94044 52.4421 7.80333 52.4421 8.66622C52.4421 10.1296 54.487 10.7513 56.5934 11.6355C60.0024 13.1201 60.6643 15.0043 60.6643 16.4298C60.6643 19.4393 57.896 20.8624 54.9882 20.8624C53.6454 20.8577 51.6809 20.5173 49.5556 19.6733Z" fill="currentColor"></path>
<path d="M61.8677 15.5031C61.8677 11.9334 64.3948 10.3282 67.2837 10.3282C70.1324 10.3282 72.6998 11.9523 72.6998 15.5031C72.6998 19.0941 70.1324 20.8388 67.2837 20.8388C64.3948 20.8364 61.8677 19.0917 61.8677 15.5031ZM68.9669 15.5031C68.9669 13.4369 68.5863 11.1721 67.2814 11.1721C65.9386 11.1721 65.6171 13.4582 65.6171 15.5031C65.6171 17.5882 65.9386 19.9759 67.2814 19.9759C68.5863 19.9759 68.9669 17.5882 68.9669 15.5031Z" fill="currentColor"></path>
<path d="M84.409 20.5362V20.6166H81.3215C81.0804 20.1958 80.7802 19.5929 80.6194 18.8317C79.9788 19.9144 79.0142 20.7962 77.4114 20.7962C75.5863 20.7962 74.1017 19.652 74.1017 17.4464V13.7371C74.1017 12.2927 73.539 10.6899 73.5201 10.5291V10.4487H77.4516V16.9877C77.4516 18.2714 78.1537 18.6922 78.9953 18.6922C79.4965 18.6922 80.0379 18.5315 80.539 18.2903C80.5201 18.1107 80.4989 17.9097 80.4989 17.7088V13.7371C80.4989 12.2927 79.9362 10.6899 79.9173 10.5291V10.4487H83.8487V17.3282C83.8487 18.7726 84.3901 20.3754 84.409 20.5362Z" fill="currentColor"></path>
<path d="M92.4516 18.2714C91.9906 19.574 91.0473 20.8388 89.2033 20.8388C87.4374 20.8388 86.3759 19.6544 86.3759 17.4889V11.392H84.9126V10.4889C87.0591 9.44636 88.4421 8.24305 89.6454 6.85771H89.7045V10.4487H92.4114V11.392H89.7045L89.7234 17.1674C89.7234 18.2099 90.2648 18.6308 91.0473 18.6308C91.4492 18.6308 91.9504 18.5102 92.4516 18.2714Z" fill="currentColor"></path>
<path d="M104.303 20.5362V20.6166H99.8109V20.5362C99.8298 20.3754 100.374 18.7702 100.374 17.3282V14.139C100.374 12.8553 99.5721 12.3943 98.6478 12.3943C98.1655 12.3943 97.6643 12.5338 97.2034 12.756V17.3282C97.2034 18.7726 97.7447 20.3754 97.7849 20.5362V20.6166H93.2932V20.5362C93.3121 20.3754 93.8558 18.7702 93.8558 17.3282V9.2856C93.8558 7.84116 93.2743 6.27615 93.2341 6.11775V6.05865L93.7967 5.97827L97.2057 5.59766V12.0752C97.8866 11.113 98.9504 10.3305 100.414 10.3305C102.22 10.3305 103.723 11.4747 103.723 13.6804V17.3305C103.721 18.7726 104.262 20.3754 104.303 20.5362Z" fill="currentColor"></path>
<path d="M114.851 17.6284L114.931 17.6875C114.47 19.0303 112.905 20.8364 110.298 20.8364C107.811 20.8364 105.083 19.191 105.083 15.5622C105.083 12.2525 107.27 10.3282 110.357 10.3282C113.927 10.3282 115.13 12.9546 115.13 15.3613H108.794C109.014 17.3069 109.877 18.6709 111.823 18.6709C112.846 18.6709 113.709 18.3707 114.851 17.6284ZM108.735 14.3187C108.735 14.4984 108.735 14.6993 108.754 14.8813L111.823 14.1603C111.804 12.7962 111.563 11.191 110.319 11.191C109.017 11.191 108.714 12.8743 108.735 14.3187Z" fill="currentColor"></path>
<path d="M124.277 10.4085L123.754 13.9783H123.655C122.813 13.035 121.449 12.1721 120.005 13.035V17.3258C120.005 18.7702 120.567 20.3731 120.586 20.5338V20.6142H116.095V20.5338C116.114 20.3731 116.657 18.7679 116.657 17.3258V13.7371C116.657 12.2927 116.116 10.6899 116.095 10.5291V10.4487H120.005V12.5338C120.747 10.9499 122.052 9.68749 124.277 10.4085Z" fill="currentColor"></path>
<path d="M136.149 20.5362V20.6166H131.657V20.5362C131.676 20.3754 132.22 18.7702 132.22 17.3282V14.139C132.22 12.8553 131.459 12.3943 130.615 12.3731C130.052 12.3731 129.532 12.5527 129.031 12.8553V17.3282C129.031 18.7726 129.593 20.3754 129.612 20.5362V20.6166H125.121V20.5362C125.14 20.3754 125.683 18.7702 125.683 17.3282V13.7371C125.683 12.2927 125.142 10.6899 125.121 10.5291V10.4487H129.031V12.1934C129.612 11.2312 130.676 10.3282 132.26 10.3282C134.066 10.3282 135.57 11.4724 135.57 13.678V17.3282C135.567 18.7726 136.109 20.3754 136.149 20.5362Z" fill="currentColor"></path>
<path d="M62.9126 39.0823V39.1816H58.662C58.0804 38.6804 57.3192 36.9546 56.7376 35.5717C55.8156 33.4251 54.6525 32.6426 53.9906 32.5031H53.5887V35.8932C53.5887 37.3376 54.1513 38.9404 54.1703 39.1012V39.1816H49.4563V39.1012C49.4752 38.9404 50.0379 37.3352 50.0379 35.8932V28.0303C50.0379 26.5858 49.4752 24.983 49.4563 24.8222V24.7419H56.4161C59.2648 24.7419 61.1892 26.2856 61.1892 28.4724C61.1892 30.7986 59.4445 31.9617 56.8369 32.1627C58.201 32.444 59.2837 33.165 60.045 34.4298C61.1277 36.2738 61.5887 37.9003 62.9126 39.0823ZM53.5863 31.6213H55.1513C56.6762 31.6213 57.3972 30.5575 57.3972 28.652C57.3972 26.827 56.6951 25.5244 55.1915 25.5244H53.5863V31.6213ZM53.766 32.4842C53.7258 32.4842 53.7069 32.4842 53.6667 32.4842H53.766Z" fill="currentColor"></path>
<path d="M72.2175 36.1934L72.2979 36.2525C71.8369 37.5953 70.2719 39.4014 67.6643 39.4014C65.1773 39.4014 62.4492 37.756 62.4492 34.1272C62.4492 30.8175 64.636 28.8932 67.7234 28.8932C71.2932 28.8932 72.4965 31.5196 72.4965 33.9263H66.1584C66.3783 35.8719 67.2412 37.236 69.1868 37.236C70.2104 37.2383 71.0733 36.9357 72.2175 36.1934ZM66.0993 32.8861C66.0993 33.0657 66.0993 33.2667 66.1182 33.4487L69.1868 32.7277C69.1679 31.3636 68.9268 29.7584 67.6833 29.7584C66.3807 29.7561 66.0804 31.4416 66.0993 32.8861Z" fill="currentColor"></path>
<path d="M73.8818 38.5811V35.5338H73.9811C75.2435 36.7773 76.688 38.4629 78.1939 38.4629C78.8747 38.4629 79.5367 38.1012 79.5367 37.3589C79.5367 36.4771 78.5745 36.1556 76.9291 35.574C74.7636 34.7915 73.5792 33.6686 73.5792 32.0445C73.5792 30.0586 75.3239 28.8955 77.9717 28.8955C78.8133 28.8955 80.2388 29.035 81.7022 29.6166V32.5456H81.6029C80.4185 31.2218 79.0568 29.7773 77.6312 29.7773C76.9906 29.7773 76.3476 30.0776 76.3476 30.7608C76.3476 31.6426 77.4516 31.983 78.9953 32.5267C81.5012 33.4085 82.1844 34.5716 82.1844 35.9759C82.1844 38.4038 80.0781 39.3849 77.9717 39.3849C77.0899 39.3825 75.6454 39.2029 73.8818 38.5811Z" fill="currentColor"></path>
<path d="M93.0142 36.1934L93.0946 36.2525C92.6336 37.5953 91.0686 39.4014 88.461 39.4014C85.974 39.4014 83.2459 37.756 83.2459 34.1272C83.2459 30.8175 85.4327 28.8932 88.5201 28.8932C92.0899 28.8932 93.2932 31.5196 93.2932 33.9263H86.9551C87.175 35.8719 88.0379 37.236 89.9835 37.236C91.0071 37.2383 91.87 36.9357 93.0142 36.1934ZM86.896 32.8861C86.896 33.0657 86.896 33.2667 86.9149 33.4487L89.9835 32.7277C89.9646 31.3636 89.7234 29.7584 88.4799 29.7584C87.1773 29.7561 86.8771 31.4416 86.896 32.8861Z" fill="currentColor"></path>
<path d="M105.026 37.4984C104.905 38.5409 104.123 39.3636 102.78 39.3636C101.617 39.3636 100.816 38.7608 100.513 37.6993C100.052 38.4818 99.0686 39.3636 97.4658 39.3636C95.3192 39.3636 94.2175 37.6993 94.2175 36.1343C94.2175 34.0492 96.1821 32.7442 98.3901 32.8648C98.9528 32.8837 99.7542 32.9854 100.376 33.2454V32.1012C100.376 30.6969 100.196 29.8341 99.6336 29.8341C98.4705 29.8341 95.2625 32.4014 95.1419 32.5622H95.0426V29.5929C96.9268 29.1319 98.7329 28.8908 99.8369 28.8908C102.664 28.8908 103.728 30.3943 103.728 32.34V36.1296C103.728 37.3518 104.009 37.9144 104.991 37.4322L105.026 37.4984ZM100.392 37.1367C100.374 36.9759 100.374 36.8152 100.374 36.6355V33.8672C100.213 33.8482 100.033 33.8482 99.8511 33.827C98.3665 33.7277 97.7045 34.548 97.7045 35.6331C97.7045 36.7371 98.3263 37.5575 99.3499 37.5575C99.7518 37.5575 100.092 37.418 100.392 37.1367Z" fill="currentColor"></path>
<path d="M113.87 28.9735L113.348 32.5433H113.248C112.407 31.6 111.043 30.7371 109.598 31.6V35.8908C109.598 37.3352 110.161 38.9381 110.18 39.0988V39.1792H105.688V39.0988C105.707 38.9381 106.251 37.3329 106.251 35.8908V32.2998C106.251 30.8553 105.709 29.2525 105.688 29.0917V29.0114H109.598V31.0965C110.34 29.5149 111.643 28.2525 113.87 28.9735Z" fill="currentColor"></path>
<path d="M114.35 34.1296C114.35 30.801 116.537 28.8955 119.645 28.8955C121.371 28.8955 122.853 29.5362 123.657 29.8175L123.716 33.0657H123.617C122.875 31.8813 121.21 29.756 119.747 29.756C118.444 29.756 117.981 31.34 118.002 33.0657C118.021 35.5125 118.884 37.2383 121.09 37.2383C121.931 37.2383 122.934 36.9783 124.099 36.236L124.158 36.2951C123.676 37.6591 122.114 39.4038 119.565 39.4038C117.078 39.4038 114.35 37.7797 114.35 34.1296Z" fill="currentColor"></path>
<path d="M136.17 39.1036V39.1839H131.679V39.1036C131.697 38.9428 132.241 37.3376 132.241 35.8955V32.7064C132.241 31.4227 131.44 30.9617 130.515 30.9617C130.033 30.9617 129.532 31.1012 129.071 31.3234V35.8955C129.071 37.34 129.612 38.9428 129.653 39.1036V39.1839H125.161V39.1036C125.18 38.9428 125.723 37.3376 125.723 35.8955V27.8506C125.723 26.4062 125.142 24.8412 125.102 24.6828V24.6237L125.664 24.5433L129.073 24.1627V30.6402C129.754 29.678 130.818 28.8955 132.281 28.8955C134.088 28.8955 135.591 30.0397 135.591 32.2454V35.8955C135.589 37.3376 136.13 38.9428 136.17 39.1036Z" fill="currentColor"></path>
</svg>